<!-- Generated by IcoMoon.io -->
<svg version="1.1" xmlns="http://www.w3.org/2000/svg" width="16" height="16" viewBox="0 0 16 16">
<title>ac_unit</title>
<path d="M14.656 7.344v1.313h-2.781l2.156 2.156-0.938 0.969-3.094-3.125h-1.344v1.344l3.125 3.094-0.969 0.938-2.156-2.156v2.781h-1.313v-2.781l-2.156 2.156-0.969-0.938 3.125-3.094v-1.344h-1.344l-3.094 3.125-0.938-0.969 2.156-2.156h-2.781v-1.313h2.781l-2.156-2.156 0.938-0.969 3.094 3.125h1.344v-1.344l-3.125-3.094 0.969-0.938 2.156 2.156v-2.781h1.313v2.781l2.156-2.156 0.969 0.938-3.125 3.094v1.344h1.344l3.094-3.125 0.938 0.969-2.156 2.156h2.781z"></path>
</svg>
