<!-- Generated by IcoMoon.io -->
<svg version="1.1" xmlns="http://www.w3.org/2000/svg" width="16" height="16" viewBox="0 0 16 16">
<title>access_alarms</title>
<path d="M8 13.344c2.594 0 4.656-2.094 4.656-4.688s-2.063-4.656-4.656-4.656-4.656 2.063-4.656 4.656 2.063 4.688 4.656 4.688zM8 2.656c3.344 0 6 2.656 6 6s-2.656 6-6 6-6-2.656-6-6 2.656-6 6-6zM8.344 5.344v3.531l2.656 1.594-0.531 0.813-3.125-1.938v-4h1zM5.281 2.281l-3.094 2.531-0.844-1 3.063-2.531zM14.656 3.813l-0.844 1-3.094-2.625 0.875-1z"></path>
</svg>
