<!-- Generated by IcoMoon.io -->
<svg version="1.1" xmlns="http://www.w3.org/2000/svg" width="16" height="16" viewBox="0 0 16 16">
<title>accessible</title>
<path d="M8.563 12h1.375c-0.313 1.531-1.656 2.656-3.281 2.656-1.844 0-3.313-1.469-3.313-3.313 0-1.625 1.125-2.969 2.656-3.281v1.375c-0.781 0.281-1.344 1.031-1.344 1.906 0 1.094 0.906 2 2 2 0.875 0 1.625-0.563 1.906-1.344zM6.656 6.063c0-0.937 1.042-1.766 2-1.219h0.031v0.031c0.156 0.063 0.281 0.156 0.406 0.281l0.875 0.969c0.656 0.719 1.656 1.219 2.688 1.219v1.313c-1.156 0-2.438-0.563-3.313-1.281v2.281h2c0.719 0 1.313 0.625 1.313 1.344v3.656h-1.313v-3.313h-3.344c-0.719 0-1.344-0.625-1.344-1.344v-3.938zM6.656 2.656c0-0.75 0.594-1.313 1.344-1.313s1.344 0.563 1.344 1.313-0.594 1.344-1.344 1.344-1.344-0.594-1.344-1.344z"></path>
</svg>
